<?xml version="1.0" encoding="UTF-8" standalone="no"?>
<!-- Created with Inkscape (http://www.inkscape.org/) -->

<svg
   width="73.200607mm"
   height="13.545701mm"
   viewBox="0 0 276.66372 51.196351"
   version="1.1"
   id="svg1"
   inkscape:version="1.4.2 (f4327f4, 2025-05-13)"
   sodipodi:docname="おばあちゃん文字あり.svg"
   xmlns:inkscape="http://www.inkscape.org/namespaces/inkscape"
   xmlns:sodipodi="http://sodipodi.sourceforge.net/DTD/sodipodi-0.dtd"
   xmlns="http://www.w3.org/2000/svg"
   xmlns:svg="http://www.w3.org/2000/svg">
  <sodipodi:namedview
     id="namedview1"
     pagecolor="#ffffff"
     bordercolor="#000000"
     borderopacity="0.25"
     inkscape:showpageshadow="2"
     inkscape:pageopacity="0.0"
     inkscape:pagecheckerboard="0"
     inkscape:deskcolor="#d1d1d1"
     inkscape:document-units="mm"
     inkscape:zoom="2.2508496"
     inkscape:cx="231.02388"
     inkscape:cy="280.33859"
     inkscape:window-width="1502"
     inkscape:window-height="973"
     inkscape:window-x="400"
     inkscape:window-y="0"
     inkscape:window-maximized="0"
     inkscape:current-layer="layer1">
    <inkscape:page
       x="1.7981658e-15"
       y="-5.4517914e-14"
       width="276.6637"
       height="51.19635"
       id="page2"
       margin="0"
       bleed="0" />
  </sodipodi:namedview>
  <defs
     id="defs1" />
  <g
     inkscape:label="Layer 1"
     inkscape:groupmode="layer"
     id="layer1"
     transform="translate(-34.090913,-546.15705)">
    <g
       id="g3"
       transform="matrix(0.3455988,0,0,0.3455988,23.16599,381.96904)">
      <ellipse
         style="fill:#aa4400;fill-opacity:1;stroke:#030202;stroke-width:5.5;stroke-linejoin:round;stroke-dasharray:none;stroke-opacity:1"
         id="path4-6-8-8"
         cx="81.304436"
         cy="594.17773"
         rx="21.41258"
         ry="16.892763"
         inkscape:export-filename="mark.svg"
         inkscape:export-xdpi="96"
         inkscape:export-ydpi="96" />
      <ellipse
         style="fill:#aa4400;fill-opacity:1;stroke:#030202;stroke-width:5.5;stroke-linejoin:round;stroke-dasharray:none;stroke-opacity:1"
         id="path4-6-8-5-2"
         cx="156.99409"
         cy="594.17773"
         rx="21.41258"
         ry="16.892763" />
      <path
         id="path4-4"
         style="fill:#aa4400;fill-opacity:1;stroke:#030202;stroke-width:5.5;stroke-linejoin:round;stroke-dasharray:none;stroke-opacity:1"
         d="m 103.65845,477.83265 a 28.977829,24.909992 0 0 0 -27.462887,16.96289 28.977829,24.909992 0 0 0 -2.24805,-0.0762 28.977829,24.909992 0 0 0 -28.97656,24.91015 28.977829,24.909992 0 0 0 4.75,13.66797 28.977829,24.909992 0 0 0 -15.35938,21.98829 28.977829,24.909992 0 0 0 28.97657,24.91015 28.977829,24.909992 0 0 0 28.97851,-24.91015 28.977829,24.909992 0 0 0 -4.75195,-13.66797 28.977829,24.909992 0 0 0 13.847657,-14.04102 28.977829,24.909992 0 0 0 2.24609,0.0762 28.977829,24.909992 0 0 0 15.32617,-3.76953 28.977829,24.909992 0 0 0 12.94141,3.83984 28.977829,24.909992 0 0 0 19.91602,15.97657 28.977829,24.909992 0 0 0 -4.13086,12.8164 28.977829,24.909992 0 0 0 28.97851,24.91016 28.977829,24.909992 0 0 0 28.97852,-24.91016 28.977829,24.909992 0 0 0 -21.48828,-24.0625 28.977829,24.909992 0 0 0 4.13086,-12.81836 28.977829,24.909992 0 0 0 -26.25977,-24.79882 28.977829,24.909992 0 0 0 -27.4082,-16.82227 28.977829,24.909992 0 0 0 -15.32422,3.76758 28.977829,24.909992 0 0 0 -15.66016,-3.94922 z" />
      <ellipse
         style="fill:#ffd5d5;fill-opacity:1;stroke:#030202;stroke-width:5.5;stroke-linejoin:round;stroke-dasharray:none;stroke-opacity:1"
         id="path4-6-9-5"
         cx="59.942802"
         cy="570.75439"
         rx="13.286409"
         ry="17.580219" />
      <ellipse
         style="fill:#ffd5d5;fill-opacity:1;stroke:#030202;stroke-width:5.5;stroke-linejoin:round;stroke-dasharray:none;stroke-opacity:1"
         id="path4-6-9-9-5"
         cx="177.14528"
         cy="570.75439"
         rx="13.286409"
         ry="17.580219" />
      <ellipse
         style="fill:#ffd5d5;fill-opacity:1;stroke:#000000;stroke-width:5.5;stroke-dasharray:none;stroke-opacity:1"
         id="path1-1"
         cx="119.8959"
         cy="563.74182"
         rx="55.917847"
         ry="56.729019" />
      <ellipse
         style="fill:#aa4400;fill-opacity:1;stroke:#030202;stroke-width:5.5;stroke-linejoin:round;stroke-dasharray:none;stroke-opacity:1"
         id="path4-6-7"
         cx="91.373283"
         cy="522.37067"
         rx="21.41258"
         ry="16.892763" />
      <ellipse
         style="fill:#aa4400;fill-opacity:1;stroke:#030202;stroke-width:5.5;stroke-linejoin:round;stroke-dasharray:none;stroke-opacity:1"
         id="path4-6-6-1"
         cx="120.82467"
         cy="516.49426"
         rx="21.41258"
         ry="16.892763" />
      <ellipse
         style="fill:#aa4400;fill-opacity:1;stroke:#030202;stroke-width:5.5;stroke-linejoin:round;stroke-dasharray:none;stroke-opacity:1"
         id="path4-6-0-1"
         cx="151.34447"
         cy="522.37067"
         rx="21.41258"
         ry="16.892763" />
      <ellipse
         style="fill:#ffaaaa;fill-opacity:1;stroke:none;stroke-width:7;stroke-linejoin:round;stroke-dasharray:none;stroke-opacity:1"
         id="path5-5"
         cx="82.734673"
         cy="563.58362"
         rx="13.559427"
         ry="8.8136272" />
      <ellipse
         style="fill:#ffaaaa;fill-opacity:1;stroke:none;stroke-width:7;stroke-linejoin:round;stroke-dasharray:none;stroke-opacity:1"
         id="path5-7-2"
         cx="155.70277"
         cy="563.58362"
         rx="13.559427"
         ry="8.8136272" />
      <path
         id="path4-6-5-76"
         style="fill:none;fill-opacity:1;stroke:#030202;stroke-width:5.5;stroke-linecap:round;stroke-linejoin:round;stroke-dasharray:none;stroke-opacity:1"
         d="m 110.18223,561.68913 c -1.55533,-6.95492 -5.84964,-11.63169 -10.679687,-11.63086 -4.82933,4.4e-4 -9.12263,4.67698 -10.67773,11.63086"
         sodipodi:nodetypes="ccc" />
      <path
         id="path4-6-5-7-1"
         style="fill:none;fill-opacity:1;stroke:#030202;stroke-width:5.5;stroke-linecap:round;stroke-linejoin:round;stroke-dasharray:none;stroke-opacity:1"
         d="m 150.63187,562.18329 c -1.55533,-6.95492 -5.84964,-11.63169 -10.67969,-11.63086 -4.82933,4.4e-4 -9.12263,4.67698 -10.67773,11.63086"
         sodipodi:nodetypes="ccc" />
      <path
         id="path6-4"
         style="fill:none;fill-opacity:1;stroke:#000000;stroke-width:4.5;stroke-linecap:round;stroke-linejoin:round;stroke-dasharray:none;stroke-opacity:1"
         d="m 86.623033,587.49673 c 0.18482,0 0.33447,-0.10223 0.33447,-0.22972 m 0,0 v -10.47068 c 0.54325,0.0456 1.09089,0.0686 1.63918,0.0686 6.70127,3e-4 12.134117,-3.34165 12.134547,-7.46442"
         sodipodi:nodetypes="cccccc" />
      <path
         id="path7-2"
         style="fill:none;stroke:#030202;stroke-width:5.5;stroke-linecap:round;stroke-linejoin:round;stroke-dasharray:none"
         d="m 131.46813,578.20446 c 0,3.95047 -5.97724,7.15294 -13.35056,7.15294 -7.37331,0 -13.35056,-3.20247 -13.35056,-7.15294"
         sodipodi:nodetypes="csc" />
    </g>
    <text
       xml:space="preserve"
       style="font-style:normal;font-variant:normal;font-weight:normal;font-stretch:normal;font-size:38.3445px;font-family:maki_maruhand;-inkscape-font-specification:'maki_maruhand, Normal';font-variant-ligatures:normal;font-variant-caps:normal;font-variant-numeric:normal;font-variant-east-asian:normal;text-align:start;writing-mode:lr-tb;direction:ltr;text-anchor:start;fill:#000000;stroke:none;stroke-width:3.63831;stroke-linecap:round;stroke-linejoin:round"
       x="107.79146"
       y="557.11908"
       id="text3-6"
       transform="scale(0.94977847,1.0528771)"
       inkscape:export-filename="logo.svg"
       inkscape:export-xdpi="96"
       inkscape:export-ydpi="96"><tspan
         sodipodi:role="line"
         id="tspan3-8"
         x="107.79146"
         y="557.11908"
         style="font-style:normal;font-variant:normal;font-weight:normal;font-stretch:normal;font-size:38.3445px;font-family:maki_maruhand;-inkscape-font-specification:'maki_maruhand, Normal';font-variant-ligatures:normal;font-variant-caps:normal;font-variant-numeric:normal;font-variant-east-asian:normal;fill:#000000;stroke-width:3.63831">私の望む暮らし</tspan></text>
  </g>
</svg>
