<?xml version="1.0" encoding="UTF-8" standalone="no"?>
<!-- Created with Inkscape (http://www.inkscape.org/) -->

<svg
   width="98.937996mm"
   height="103.29858mm"
   viewBox="0 0 373.93889 390.41988"
   version="1.1"
   id="svg1"
   inkscape:version="1.4.2 (f4327f4, 2025-05-13)"
   sodipodi:docname="おばあちゃん文字あり.svg"
   xmlns:inkscape="http://www.inkscape.org/namespaces/inkscape"
   xmlns:sodipodi="http://sodipodi.sourceforge.net/DTD/sodipodi-0.dtd"
   xmlns="http://www.w3.org/2000/svg"
   xmlns:svg="http://www.w3.org/2000/svg">
  <sodipodi:namedview
     id="namedview1"
     pagecolor="#ffffff"
     bordercolor="#000000"
     borderopacity="0.25"
     inkscape:showpageshadow="2"
     inkscape:pageopacity="0.0"
     inkscape:pagecheckerboard="0"
     inkscape:deskcolor="#d1d1d1"
     inkscape:document-units="mm"
     inkscape:zoom="2.2508496"
     inkscape:cx="231.02388"
     inkscape:cy="280.33859"
     inkscape:window-width="1502"
     inkscape:window-height="973"
     inkscape:window-x="400"
     inkscape:window-y="0"
     inkscape:window-maximized="0"
     inkscape:current-layer="layer1">
    <inkscape:page
       x="3.2603406e-15"
       y="7.4352681e-14"
       width="373.9389"
       height="390.41986"
       id="page2"
       margin="0"
       bleed="0" />
  </sodipodi:namedview>
  <defs
     id="defs1" />
  <g
     inkscape:label="Layer 1"
     inkscape:groupmode="layer"
     id="layer1"
     transform="translate(-62.254924,-109.74875)">
    <path
       id="path3"
       style="fill:#ffffff;stroke:none;stroke-width:6.8735;stroke-linecap:round;stroke-linejoin:round"
       d="m 434.78996,365.55152 c -6.53513,21.13437 -39.90429,22.32066 -52.65045,40.40117 -11.5222,16.34431 -2.39607,45.11553 -18.405,57.09934 -17.7095,13.25681 -45.40301,-5.39738 -66.34232,1.73806 -18.9286,6.45025 -28.4567,35.09086 -48.45211,35.37615 -22.11945,0.3156 -33.5593,-31.05378 -54.69366,-37.58891 -19.10493,-5.90757 -43.64785,11.66271 -59.99217,0.14053 -18.08052,-12.74616 -8.89709,-44.84874 -22.1539,-62.55825 C 100.11653,384.15068 69.933348,383.93934 63.483098,365.01075 56.347664,344.07144 82.6466,323.49781 82.331001,301.37837 82.045706,281.38296 57.751216,263.47077 63.658805,244.36585 c 6.53513,-21.13436 39.904295,-22.32065 52.650455,-40.40117 11.5222,-16.34431 2.39607,-45.11553 18.40499,-57.09934 17.70951,-13.25681 45.40301,5.39736 66.34232,-1.73806 18.9286,-6.45026 28.45671,-35.09087 48.45211,-35.37617 22.11945,-0.3156 33.55932,31.05379 54.69368,37.58892 19.10493,5.90759 43.64784,-11.66267 59.99216,-0.14053 18.08051,12.74616 8.89708,44.8487 22.1539,62.5582 11.98381,16.00893 42.167,16.22025 48.61724,35.14886 7.13544,20.93931 -19.1635,41.51295 -18.8479,63.63239 0.2853,19.99541 24.57979,37.9076 18.6722,57.01253 z"
       sodipodi:nodetypes="aaaaaaaaaaaaaaaaaaaaa" />
    <ellipse
       style="fill:#aa4400;fill-opacity:1;stroke:#030202;stroke-width:5.5;stroke-linejoin:round;stroke-dasharray:none;stroke-opacity:1"
       id="path4-6-8"
       cx="211.09325"
       cy="403.35873"
       rx="21.41258"
       ry="16.892763" />
    <ellipse
       style="fill:#aa4400;fill-opacity:1;stroke:#030202;stroke-width:5.5;stroke-linejoin:round;stroke-dasharray:none;stroke-opacity:1"
       id="path4-6-8-5"
       cx="286.78293"
       cy="403.35873"
       rx="21.41258"
       ry="16.892763" />
    <path
       id="path4"
       style="fill:#aa4400;fill-opacity:1;stroke:#030202;stroke-width:5.5;stroke-linejoin:round;stroke-dasharray:none;stroke-opacity:1"
       d="m 233.44727,287.01368 a 28.977829,24.909992 0 0 0 -27.46289,16.96289 28.977829,24.909992 0 0 0 -2.24805,-0.0762 28.977829,24.909992 0 0 0 -28.97656,24.91015 28.977829,24.909992 0 0 0 4.75,13.66797 28.977829,24.909992 0 0 0 -15.35938,21.98829 28.977829,24.909992 0 0 0 28.97657,24.91015 28.977829,24.909992 0 0 0 28.97851,-24.91015 28.977829,24.909992 0 0 0 -4.75195,-13.66797 28.977829,24.909992 0 0 0 13.84766,-14.04102 28.977829,24.909992 0 0 0 2.24609,0.0762 28.977829,24.909992 0 0 0 15.32617,-3.76953 28.977829,24.909992 0 0 0 12.94141,3.83984 28.977829,24.909992 0 0 0 19.91602,15.97657 28.977829,24.909992 0 0 0 -4.13086,12.8164 28.977829,24.909992 0 0 0 28.97851,24.91016 28.977829,24.909992 0 0 0 28.97852,-24.91016 28.977829,24.909992 0 0 0 -21.48828,-24.0625 28.977829,24.909992 0 0 0 4.13086,-12.81836 28.977829,24.909992 0 0 0 -26.25977,-24.79882 28.977829,24.909992 0 0 0 -27.4082,-16.82227 28.977829,24.909992 0 0 0 -15.32422,3.76758 28.977829,24.909992 0 0 0 -15.66016,-3.94922 z" />
    <ellipse
       style="fill:#ffd5d5;fill-opacity:1;stroke:#030202;stroke-width:5.5;stroke-linejoin:round;stroke-dasharray:none;stroke-opacity:1"
       id="path4-6-9"
       cx="189.73161"
       cy="379.93539"
       rx="13.286409"
       ry="17.580219" />
    <ellipse
       style="fill:#ffd5d5;fill-opacity:1;stroke:#030202;stroke-width:5.5;stroke-linejoin:round;stroke-dasharray:none;stroke-opacity:1"
       id="path4-6-9-9"
       cx="306.93411"
       cy="379.93539"
       rx="13.286409"
       ry="17.580219" />
    <ellipse
       style="fill:#ffd5d5;fill-opacity:1;stroke:#000000;stroke-width:5.5;stroke-dasharray:none;stroke-opacity:1"
       id="path1"
       cx="249.68472"
       cy="372.92285"
       rx="55.917847"
       ry="56.729019" />
    <ellipse
       style="fill:#aa4400;fill-opacity:1;stroke:#030202;stroke-width:5.5;stroke-linejoin:round;stroke-dasharray:none;stroke-opacity:1"
       id="path4-6"
       cx="221.16211"
       cy="331.55167"
       rx="21.41258"
       ry="16.892763" />
    <ellipse
       style="fill:#aa4400;fill-opacity:1;stroke:#030202;stroke-width:5.5;stroke-linejoin:round;stroke-dasharray:none;stroke-opacity:1"
       id="path4-6-6"
       cx="250.61349"
       cy="325.67526"
       rx="21.41258"
       ry="16.892763" />
    <ellipse
       style="fill:#aa4400;fill-opacity:1;stroke:#030202;stroke-width:5.5;stroke-linejoin:round;stroke-dasharray:none;stroke-opacity:1"
       id="path4-6-0"
       cx="281.1333"
       cy="331.55167"
       rx="21.41258"
       ry="16.892763" />
    <ellipse
       style="fill:#ffaaaa;fill-opacity:1;stroke:none;stroke-width:7;stroke-linejoin:round;stroke-dasharray:none;stroke-opacity:1"
       id="path5"
       cx="212.52348"
       cy="372.76462"
       rx="13.559427"
       ry="8.8136272" />
    <ellipse
       style="fill:#ffaaaa;fill-opacity:1;stroke:none;stroke-width:7;stroke-linejoin:round;stroke-dasharray:none;stroke-opacity:1"
       id="path5-7"
       cx="285.49161"
       cy="372.76462"
       rx="13.559427"
       ry="8.8136272" />
    <path
       id="path4-6-5"
       style="fill:none;fill-opacity:1;stroke:#030202;stroke-width:5.5;stroke-linecap:round;stroke-linejoin:round;stroke-dasharray:none;stroke-opacity:1"
       d="m 239.97105,370.87016 c -1.55533,-6.95492 -5.84964,-11.63169 -10.67969,-11.63086 -4.82933,4.4e-4 -9.12263,4.67698 -10.67773,11.63086"
       sodipodi:nodetypes="ccc" />
    <path
       id="path4-6-5-7"
       style="fill:none;fill-opacity:1;stroke:#030202;stroke-width:5.5;stroke-linecap:round;stroke-linejoin:round;stroke-dasharray:none;stroke-opacity:1"
       d="m 280.42069,371.36432 c -1.55533,-6.95492 -5.84964,-11.63169 -10.67969,-11.63086 -4.82933,4.4e-4 -9.12263,4.67698 -10.67773,11.63086"
       sodipodi:nodetypes="ccc" />
    <path
       id="path6"
       style="fill:none;fill-opacity:1;stroke:#000000;stroke-width:4.5;stroke-linecap:round;stroke-linejoin:round;stroke-dasharray:none;stroke-opacity:1"
       d="m 216.41185,396.67776 c 0.18482,0 0.33447,-0.10223 0.33447,-0.22972 m 0,0 v -10.47068 c 0.54325,0.0456 1.09089,0.0686 1.63918,0.0686 6.70127,3e-4 12.13412,-3.34165 12.13455,-7.46442"
       sodipodi:nodetypes="cccccc" />
    <path
       id="path7"
       style="fill:none;stroke:#030202;stroke-width:5.5;stroke-linecap:round;stroke-linejoin:round;stroke-dasharray:none"
       d="m 261.25695,387.38549 c 0,3.95047 -5.97724,7.15294 -13.35056,7.15294 -7.37331,0 -13.35056,-3.20247 -13.35056,-7.15294"
       sodipodi:nodetypes="csc" />
    <ellipse
       style="fill:none;stroke:none;stroke-width:4.5;stroke-linecap:round;stroke-linejoin:round"
       id="path2"
       cx="240.35368"
       cy="282.55997"
       rx="111.51345"
       ry="81.302635" />
    <path
       style="font-size:30.5244px;font-family:maki_maruhand;-inkscape-font-specification:maki_maruhand;stroke-width:11.4466;stroke-linecap:round;stroke-linejoin:round"
       d="m 163.55117,222.79396 q -0.5337,-0.12449 -1.0236,-0.0656 l -0.68427,-0.59249 q -0.76306,-2.01772 -1.93733,-3.84999 -0.15322,0.65687 -0.18327,1.34246 -0.0301,0.6856 0.0884,1.38419 l -0.50355,0.48857 q -0.41121,0.18546 -0.82516,0.19712 -0.68218,-0.13748 -0.99014,-0.85863 -0.0603,-1.22613 -0.0447,-2.49947 0.041,-1.28909 -0.0193,-2.51521 l 0.0356,-0.33801 -0.55418,0.52005 q -0.58841,0.29563 -1.27676,0.0918 l -0.65279,-0.54186 q 0.27022,-0.69451 0.75803,-1.2084 0.51313,-0.52963 0.95373,-1.11946 -0.98198,-1.63591 -1.97971,-3.29714 l -0.78477,0.48792 q -0.5063,0.31478 -1.06191,0.0986 l -0.70342,-0.51038 q 0.77377,-1.18308 1.83151,-2.19171 1.05774,-1.00862 2.04294,-2.07746 l 0.41121,-0.18545 0.39822,-0.037 q 0.54944,0.14981 0.76296,0.71907 l 0.0274,0.43927 q -0.62121,0.80743 -1.28349,1.60528 0.74524,1.5374 1.72447,2.99952 l 0.35717,-0.0465 0.34549,-0.46051 0.82517,-0.19712 0.48307,0.15597 0.31478,0.5063 q 0.11292,0.351 -0.0239,0.75197 l -0.25382,0.4386 -0.54185,0.65279 q 0.15331,0.6418 0.53105,1.24936 l 0.50431,0.52887 q 1.21996,-0.12667 2.4276,-0.38608 1.21722,-0.30047 2.39954,-0.54414 l 0.32502,0.18403 0.38181,0.21893 0.087,0.64795 q -0.35783,0.32777 -0.72523,0.6966 -0.92367,0.43386 -1.89731,0.61799 -0.98938,0.15881 -1.89048,0.40315 l 0.19436,0.65137 q 0.85541,1.7146 1.96397,3.27182 0.27032,0.60415 0.35726,1.2521 -0.1279,0.64113 -0.691,0.92102 z m 12.17366,-10.34159 q -0.48649,-0.0486 -0.92576,-0.0212 -0.70342,-0.51038 -1.31175,-1.15008 -0.60832,-0.63971 -1.31174,-1.15009 -1.24452,1.15986 -2.10998,2.36484 -0.84014,1.18925 -1.99572,2.15341 l -0.9032,-0.21068 -0.60491,-0.74713 q -0.45927,-2.20659 -1.40229,-4.28793 -0.95876,-2.10666 -1.49398,-4.26604 l 0.3455,-0.46051 1.05575,-0.16497 q 0.59325,0.33317 0.92035,0.97221 0.49275,1.41358 1.08676,2.76419 0.57826,1.3253 1.09633,2.72314 0.72522,-0.6966 1.25751,-1.30833 0.55759,-0.62748 1.06456,-1.22348 l -0.13824,-0.33526 q -0.62065,-0.77244 -1.3747,-1.25134 0.0924,-0.30312 0.0369,-0.90045 l 0.4242,-0.33393 0.92301,-0.15265 q 1.72228,1.24585 3.17843,2.79756 1.46572,1.51066 2.77614,3.22318 l 0.0465,0.35716 -0.43036,0.26757 z m 20.36857,-5.74973 q 1.39846,-0.97966 2.21881,-2.45532 1.08883,-2.25975 0.50799,-4.70705 -0.59418,-1.56111 -1.47898,-2.8659 -1.11174,-1.41649 -2.72792,-2.09456 -1.71103,-0.77175 -3.56805,-0.7696 -1.74415,-0.0363 -3.40972,0.43602 -1.61873,0.42485 -2.93253,1.3757 -1.20092,0.91244 -1.92818,2.19899 -0.59576,1.21032 -0.48368,2.55762 -2e-4,1.47998 0.54596,2.9 0.44956,1.04355 1.08705,1.99167 0.71313,0.98535 1.71749,1.80863 1.41687,0.4625 2.89391,-0.009 l 1.27715,-0.78094 q 0.0296,-1.30106 -0.19419,-2.42143 -0.27122,-1.16721 -0.47639,-2.32541 l -0.43622,-1.92974 q -0.73646,-1.70162 -0.95358,-3.26509 1.18406,-0.59183 2.77692,-0.63003 1.29145,0.001 2.55763,0.48367 1.27577,0.51052 2.23387,1.47549 0.91185,1.10666 1.45743,2.43241 0.25436,1.48782 -0.33062,2.91488 -0.61497,1.15388 -1.63697,2.03692 l -0.27809,0.75587 0.59967,0.92949 z m -8.8244,-1.68894 q -0.0372,0.0756 -0.0186,0.0378 -0.77213,0.13679 -1.41687,-0.4625 -0.66454,-0.74999 -1.06608,-1.65244 -0.65062,-1.54191 -0.55674,-3.11674 0.16462,-0.81171 0.79272,-1.3718 0.32668,-0.5205 0.73195,-0.53245 0.11465,0.24438 0.30552,0.62025 l 0.59594,1.84391 q 0.51069,1.77844 0.64492,3.6535 0.0504,0.51815 -0.0127,0.98045 z m 31.61305,0.52628 q -0.81355,-0.0112 -1.60548,-0.0854 -0.78797,-0.0447 -1.45813,-0.55628 -0.32932,-0.43704 -0.45975,-0.96091 l 0.21437,-0.41974 0.62223,-0.29402 q 1.20375,0.2295 2.59234,0.0432 l 0.50801,-0.24861 q 0.0349,-0.63628 0.007,-1.29418 l -0.56747,-0.19456 q -0.76995,0.31383 -1.6307,0.39923 l -0.47487,-0.17689 -0.33112,-0.22627 -0.49902,-0.80525 0.13546,-0.55955 q 0.68132,-0.30193 1.38245,-0.45615 0.69718,-0.18376 1.44947,-0.40499 l -0.24395,-2.04252 q -0.43344,-0.0922 -0.9573,0.0382 l -0.99262,0.2234 -0.67772,-0.11961 q -0.45722,-0.2695 -0.81608,-0.70257 l -0.10882,-0.58692 0.23023,-0.30157 q 1.10466,-0.50912 2.4637,-0.69145 l -0.0299,-0.44712 q -0.26267,-0.83697 -0.38158,-1.7233 l 0.1315,-0.58909 q 0.23815,-0.24248 0.62223,-0.29401 0.4727,-0.0634 0.84129,0.21797 l 0.1834,0.24608 q 0.51884,0.95298 0.71665,1.9791 1.32157,-0.23745 2.28247,-0.6972 0.72492,0.023 1.3713,0.35739 0.32535,0.40749 0.27852,0.95514 -0.26949,0.45722 -0.77354,0.73538 -1.08701,0.41652 -2.18592,0.74441 -0.0425,1.02828 0.32862,2.00108 1.07153,-0.0836 1.75284,-0.38554 l 0.90831,0.26913 0.34301,0.31489 -0.15671,1.07369 q -1.10646,0.71989 -2.41218,1.07552 l 0.0523,1.28626 q 0.76635,0.10771 1.61917,-0.0368 l 0.42731,-0.17763 0.37039,0.0706 0.64204,-0.14629 0.38408,-0.0515 q 0.95731,-0.0382 1.8458,0.0832 l 0.50658,0.41325 0.24249,0.23816 -0.35777,0.9202 q -2.28067,0.48643 -4.56134,0.97286 -1.10683,0.2688 -2.00288,0.5394 -0.86255,0.29617 -1.7705,0.47814 z m 7.81465,-14.16158 -0.50839,-0.20248 -0.5282,-0.3502 q -0.62655,-0.18663 -0.93605,-0.47594 l -0.19745,-0.57503 0.23022,-0.30157 0.63016,-0.23493 -0.19855,-1.9283 -0.25474,-0.77788 -0.32499,0.0436 q -1.1897,0.0995 -2.34806,-0.0158 0.003,1.1425 0.0433,2.34013 l -0.027,0.69537 -0.23166,0.96344 -0.36426,0.19925 -0.38983,0.23275 q -0.56964,-0.43487 -1.00344,-0.97819 l -0.20142,-0.60457 0.0703,-0.82148 -0.13836,-0.58296 q 0.0486,-0.75842 -0.0624,-1.58566 -0.11098,-0.82724 -0.16287,-1.66241 -0.41149,-2.17042 -0.70877,-4.38625 l 0.2576,-0.54585 0.42335,-0.20718 0.38588,-0.2623 q 1.14609,-0.42444 2.34155,-0.70513 1.22501,-0.28465 2.41651,-0.59488 l 0.53792,0.19851 0.34084,0.0746 q 0.29365,0.17114 0.28609,0.56314 0.0321,0.68744 0.005,1.38282 -0.001,0.66186 0.15675,1.39254 0.92134,4.17727 1.60632,8.38625 0.0123,0.53972 -0.32425,0.94578 -0.31886,0.31347 -0.82111,0.38085 z m -12.14993,0.006 q -0.9357,-0.0248 -1.93624,0.13946 -1.00054,0.16431 -1.89516,-0.22696 -0.61504,-0.54908 -0.67882,-1.47288 -0.0274,-2.22195 -0.58663,-4.37255 -0.86651,0.26663 -1.54856,-0.33362 -0.44353,-0.39163 -0.63701,-0.93712 l 0.7894,-0.6172 0.98289,-0.0717 q -0.0699,-1.19367 -0.0393,-2.31059 -0.16214,-0.76022 -0.0108,-1.20159 l 0.62222,-0.29401 q 0.66187,0.001 1.23727,0.25508 0.23492,0.63015 0.27492,1.37669 l 0.0818,1.28229 0.13223,0.3131 0.392,0.008 q 1.15403,-0.36536 2.42443,-0.5358 l 0.24249,0.23816 0.55161,0.0764 0.28429,0.77392 -0.20645,0.47883 q -0.73247,0.36896 -1.60691,0.5765 -0.84886,0.17404 -1.68979,0.40716 0.16325,2.1135 0.39351,4.27816 1.02649,0.25327 1.94236,0.1304 0.94542,-0.12684 1.78671,0.0911 l 0.62656,0.18662 0.0555,0.41362 q 0.004,0.48064 -0.24751,0.84526 -0.78364,0.43597 -1.73698,0.50372 z m 9.91635,-7.01475 0.0468,-0.54766 -0.34084,-0.0746 -0.96704,0.18989 q -0.64421,-0.094 -1.29815,-0.0364 l -0.0785,0.3113 0.30157,0.23023 q 1.12485,0.0897 2.33617,-0.0728 z m -0.45329,-2.70619 -0.11712,-1.0971 -0.43343,-0.0922 q -1.02,0.46768 -2.11926,0.34447 l -0.0155,0.33292 0.0555,0.41362 0.25041,0.29724 q 1.13854,-0.0324 2.3794,-0.19892 z m 23.66527,19.94812 q 0.83957,-0.0774 1.73719,-0.122 0.44807,-0.007 0.98843,-0.0699 0.51655,-0.18308 1.0584,-0.27535 0.4168,0.0209 0.87381,-0.1652 0.56568,-0.56862 0.51957,-1.43647 -0.39297,-0.4972 -0.85293,-0.84853 -0.62372,-0.061 -1.11049,0.12351 -0.75472,0.17116 -1.42609,0.46588 -0.54483,0.15181 -1.0182,0.0684 -0.88868,-0.13401 -1.49005,-0.64164 -0.65938,-1.73423 -0.62209,-3.67237 -0.15028,-1.76845 -0.2425,-3.50415 -0.18005,-1.76994 0.27998,-3.20939 l 1.12239,0.23524 1.61065,0.0209 0.94976,-1.08663 -0.19497,-0.8753 -1.19085,-0.65651 -1.35313,0.2009 q -0.62968,0.058 -1.03903,-0.11168 0.0224,-1.64043 -0.50896,-3.54733 l -0.68475,-0.0343 -0.81727,0.82465 0.0446,1.49455 0.0253,1.28465 -3.3151,0.043 -0.60141,0.68622 0.007,1.04499 1.10004,0.68181 1.43649,-0.0773 0.86338,0.0432 0.33047,-0.0432 q 0.007,1.64192 -0.34846,3.38504 -1.14622,0.24111 -2.22846,0.9928 -0.95719,0.63857 -1.10162,1.73565 -0.31415,1.50645 0.32886,2.97124 1.52872,1.65835 3.66039,1.40686 l 1.1387,1.69853 q 0.95119,0.67437 2.07059,0.96915 z m -4.18869,-5.16408 q -0.44508,-0.0521 -0.87825,-0.34241 -0.15629,-0.45551 0.10572,-0.91994 0.1325,-0.26199 0.29328,-0.49272 0.16077,-0.23072 0.31559,-0.34236 0.15482,-0.11164 0.23668,0.0417 0.0819,0.15333 0.13248,0.33494 0.0431,0.92739 -0.2055,1.7208 z m 12.15898,-4.40575 0.67285,-0.32449 0.44958,-0.63412 q -0.0148,-1.49306 -0.21425,-2.87596 -0.19941,-1.38291 -0.66826,-2.74945 l -0.89313,-0.64162 -1.23259,0.77402 q 0.1369,1.43947 0.40033,2.73604 0.23813,1.20577 0.47476,2.44131 0.20093,0.75621 1.01071,1.27427 z m 19.77955,17.08345 q -0.60302,-0.42238 -1.17706,-0.83774 -0.33803,0.25539 -0.68566,0.17104 l -0.39938,-0.25027 -0.2703,-0.403 -0.11055,-0.30289 q -0.21321,-0.51185 -0.0656,-1.12019 0.87224,-2.45698 1.40389,-5.02729 -0.62517,0.55381 -1.22839,1.14361 -0.56722,0.56787 -1.24329,1.07865 l -0.32398,0.19746 q -0.51185,0.21321 -1.01922,0.0288 l -0.61174,-0.63922 q -0.15528,-0.49778 -0.0867,-1.03327 l 0.30119,-0.35636 0.30289,-0.11055 q 1.00707,-0.7372 1.83949,-1.63948 0.83944,-0.93125 1.49016,-1.96964 -0.27648,-0.25113 -0.6961,-0.2916 -1.07183,-0.26008 -1.52552,-1.04499 -0.11843,-0.39683 -0.013,-0.83135 l 0.5619,-0.29309 1.12892,0.15123 0.3915,0.15634 q 0.73038,0.0238 1.41072,0.12758 0.29415,-0.32738 0.33462,-0.747 -0.3423,-0.35912 -0.69162,-0.68927 l -0.64327,-1.01496 q -0.10608,-0.70057 0.15655,-1.40369 l 1.0173,-3.43403 0.80515,-0.66351 q 1.70487,-0.1998 3.34478,-0.38469 1.66888,-0.17786 3.33328,0.0419 l 0.53187,0.58917 0.11311,0.6716 q -0.41451,0.69694 -0.58938,1.54406 -0.17487,0.84711 -0.45156,1.60817 -0.53144,1.55812 -0.75914,3.12859 l -0.32312,0.32035 q -0.85073,0.34571 -1.76281,0.18575 -0.87608,-0.18191 -1.7724,-0.154 l 0.10437,0.45476 0.13952,0.30992 q 1.20794,0.0784 2.19819,0.0426 1.01922,-0.0288 2.04632,0.0364 0.37211,0.48906 0.83028,0.87629 l -0.0334,0.39065 -0.33633,0.5012 -0.62686,0.308 -1.06225,0.0797 q 0.96022,0.84647 2.14878,1.25756 1.19558,0.38213 2.25591,1.06884 l 0.18681,0.87353 -0.51717,0.48799 q -0.49694,0.27818 -1.12018,0.0656 -0.82603,-0.26178 -1.60903,-0.57447 -0.77597,-0.34165 -1.50891,-0.73422 l 0.0763,0.57064 0.12014,0.64263 q -0.0441,0.94019 -0.13291,1.68549 l -0.27669,0.76106 q -0.0415,1.3089 -0.27796,2.66254 l -0.0405,0.41961 -0.0405,0.41962 -0.41536,0.57404 q -1.02454,0.30353 -2.03673,0.30332 -1.01219,-2.1e-4 -2.08934,0.0145 z m -0.12504,-2.39224 0.31865,0.0773 q 1.09207,0.0503 2.16837,-0.0873 l 0.10543,-0.43453 0.066,-0.90419 q -1.38707,0.15421 -2.52834,0.30672 l -0.31886,0.93487 z m 1.50187,-3.40847 q 0.68566,-0.17104 1.48186,-0.0392 l 0.15635,-0.3915 q -1.222,-0.0204 -2.25613,-0.0566 l -0.31524,0.41429 z m -2.38734,-2.29702 q 0.43985,-0.16934 0.93317,0.0731 l 0.38447,0.18531 q 0.48905,-0.37211 1.09654,-0.34741 0.74359,-0.15698 1.38707,-0.15421 0.67245,0.01 1.38175,0.12055 -0.78556,-0.68139 -1.5562,-1.29782 -0.73465,-0.63837 -1.61329,-1.18898 l -0.29586,0.0816 q -0.59534,0.68374 -1.04499,1.52553 l -0.80344,0.90931 z m 4.92206,-7.51709 q 0.27136,-0.48629 0.39,-1.10165 l -0.34847,-0.20725 q -0.71548,0.0411 -1.47569,-0.11268 -0.73123,-0.14676 -1.44671,-0.10565 l -0.30566,0.75404 q 0.26242,0.30906 0.60301,0.42238 1.2957,0.22237 2.58352,0.35081 z m 1.00579,-3.00739 q 0.36785,-0.12546 0.41535,-0.57404 l -0.30715,-0.50397 q -1.09206,-0.0503 -1.9822,-0.17423 -0.88311,-0.15293 -1.6987,0.0479 l -0.22834,0.43538 0.32909,0.53996 q 1.09995,0.1442 1.88124,0.21108 0.8173,0.0449 1.59071,0.0179 z m -3.3122,-4.30052 -0.33612,-0.51099 0.0449,-0.8173 -0.56531,-0.19851 -1.26673,-0.21535 q -0.64604,-0.37147 -1.14809,-0.83071 -0.19128,-0.47584 -0.0648,-0.99727 l 0.88758,-0.24475 0.3195,0.20023 q 0.3538,-0.0675 0.75233,0.0599 0.76021,0.15378 1.30976,0.16443 l 0.22663,-0.68118 0.10032,-1.17194 0.23707,-0.21854 0.51973,-0.11929 q 0.44944,0.1704 0.76276,0.5225 l 0.2703,0.403 q 0.092,0.7585 0.0901,1.52489 0.9551,0.10905 1.69955,0.075 0.47861,-0.83476 1.03008,-1.5905 l 0.64263,-0.12013 q 0.56531,0.19852 0.79343,0.77533 0.11929,0.51972 0.0217,1.04818 1.00516,0.0292 1.83822,0.26199 0.49331,0.2424 0.74253,0.73231 l 0.0456,0.3178 0.0464,0.4407 q -0.4162,0.45114 -1.00089,0.58533 -0.76724,-0.12481 -1.5266,-0.1557 -0.75232,-0.0599 -1.45289,0.0462 l -0.63048,0.82858 q -0.2801,0.26945 -0.67075,0.23601 l -0.37041,-0.24325 -0.35721,-0.42409 q -0.12546,-0.36785 -0.26498,-0.67777 l -0.94722,-0.0151 -0.56999,1.21134 q -0.61452,0.004 -1.20879,-0.20128 z m 20.72158,27.00897 q 1.68009,0.54993 3.36872,0.12527 1.3225,-0.26102 2.23598,-1.29059 0.78031,-1.02343 1.36989,-2.13151 0.49253,-1.47727 0.10431,-2.95406 -0.51559,-1.92466 -2.20197,-2.90134 -1.19885,-0.53203 -2.37625,-0.59797 l -0.14236,-0.19362 0.28424,-0.4935 1.1395,-2.78817 -0.37274,-0.85028 -1.05649,-0.3384 -0.86511,0.92057 q -0.55637,0.95976 -0.68293,1.97981 l -1.2759,2.43412 -0.56831,1.28059 0.28795,0.74742 q 0.78112,0.44448 1.62237,0.16557 l 0.58685,-0.58749 1.46179,-0.13398 q 1.0747,0.44432 1.66849,1.45792 0.65746,1.23754 0.14059,2.47572 -0.58669,0.88108 -1.40956,1.5595 -0.75645,0.38177 -1.60093,0.30052 -0.49946,-0.12382 -0.8024,-0.617 -0.8872,-0.71985 -1.57981,0.17945 l -0.37758,1.36522 z m 8.27982,-12.9253 q 0.69938,0.40821 1.42262,0.17476 l 0.80466,-0.78435 0.0237,-0.93524 -1.21739,-1.22512 q -1.0602,-1.57933 -1.72105,-3.47062 l -1.1745,-0.29293 -0.69583,0.53912 -0.26263,1.25318 1.80827,2.46572 z m 8.08679,21.29613 q -1.88674,-1.19972 -2.06193,-3.38097 0.0502,-1.92681 1.06165,-3.5805 0.90313,-1.76026 2.02209,-3.41484 2.03338,-3.05115 4.16562,-6.14446 l 1.05484,-0.41388 0.69829,0.45721 0.43881,1.07117 q -3.01488,4.33254 -5.83203,8.58076 -1.14301,1.74572 -1.0186,3.78684 0.27285,0.99814 1.16115,1.43723 1.03525,0.21465 2.0524,0.23928 1.10561,-0.27374 2.03398,-0.98421 0.52698,-0.26067 0.80368,-0.7921 l 0.67898,-0.87376 0.80813,-0.25473 0.85564,0.48897 0.4302,1.0299 -0.80872,1.18074 q -0.55785,0.5255 -1.15697,1.05961 -1.02545,0.96757 -2.34334,1.56552 -1.42032,0.21021 -2.79433,0.0232 -1.24248,-0.27907 -2.24954,-1.08096 z"
       id="text2"
       transform="matrix(1.7695883,0,0,1.7695883,-174.31207,-125.73799)"
       aria-label="                        私の望む暮らし            "
       inkscape:export-filename="おばあちゃん文字あり2.svg"
       inkscape:export-xdpi="96"
       inkscape:export-ydpi="96" />
  </g>
</svg>
